# xmcd
# 
# Track frame offsets:
#     150
#     12786
#     38070
#     56902
#     65913
#     75251
#     90359
#     112897
#     123845
#     146497
#     160613
#     173331
#     187034
# 
# Disc length: 2805
# 
# Revision: 2
# Processed by: cddbd v1.5.2PL0 Copyright (c) Steve Scherf et al.
# Submitted via: fre:ac v1.0.27
# 
DISCID=970af30d
DTITLE=Various Artist - Acoustic Artists: Shades of Blue (Acoustic Guitar Magazine)
DYEAR=2000
DGENRE=American Folk
TTITLE0=John Jackson - Chesterfield
TTITLE1=David Lindley - Mercury Blues
TTITLE2=Shawn Colvin - Shotgun Down the Avalanche
TTITLE3=Jerry Douglas, Russ Barenberg, and Edgar Meyer - The Hymn of Ordinary Motion
TTITLE4=Chris Smither - Love You Like a Man
TTITLE5=Bill Morrissey - Birches
TTITLE6=Dave Van Ronk - The Entertainer
TTITLE7=Paco Pena - Cancion (Peteneras)
TTITLE8=Willy Porter - Mystery
TTITLE9=Kristina Olsen - Uh Huh
TTITLE10=Ramblin' Jack Elliott - Pastures of Plenty
TTITLE11=Honeyboy Edwards - Roamin' and Ramblin' Blues
TTITLE12=Ben Harper - I Shall Not Walk Alone
EXTD=
EXTT0=
EXTT1=
EXTT2=
EXTT3=
EXTT4=
EXTT5=
EXTT6=
EXTT7=
EXTT8=
EXTT9=
EXTT10=
EXTT11=
EXTT12=
PLAYORDER=
